# 3ds Max Wavefront OBJ Exporter v0.99 - (c)2007 guruware
# 创建的文件:20.09.2024 23:02:04

#
# object 图形001
#

v  -146.5697 3.0000 150.7344
v  -146.5697 3.0000 -146.7257
v  -148.5697 3.0000 -148.7257
v  -148.5697 3.0000 150.7344
v  -148.5697 -3.0000 -148.7257
v  -148.5697 -3.0000 150.7344
v  -146.5697 -3.0000 -146.7257
v  -146.5697 -3.0000 150.7344
v  149.8904 3.0000 -146.7257
v  151.8904 3.0000 -148.7257
v  151.8904 -3.0000 -148.7257
v  149.8904 -3.0000 -146.7257
v  149.8904 3.0000 149.7344
v  151.8904 3.0000 151.7344
v  151.8904 -3.0000 151.7344
v  149.8904 -3.0000 149.7344
v  -145.0746 2.4951 148.7916
v  -144.4080 3.1618 150.6772
v  -150.0648 -2.4951 152.6772
v  -150.7315 -3.1618 150.7916
v  -145.0746 295.9651 148.7916
v  -144.4080 295.2984 150.6772
v  -150.0648 300.9552 152.6772
v  -150.7315 301.6219 150.7916
v  149.8904 295.4601 149.7344
v  151.8904 295.4601 151.7344
v  151.8904 301.4601 151.7344
v  149.8904 301.4601 149.7344
v  149.8904 295.4601 -146.7257
v  151.8904 295.4601 -148.7257
v  151.8904 301.4601 -148.7257
v  149.8904 301.4601 -146.7257
v  -146.5697 295.4601 -146.7257
v  -148.5697 295.4601 -148.7257
v  -148.5697 301.4601 -148.7257
v  -146.5697 301.4601 -146.7257
v  -146.5697 295.4601 150.7344
v  -148.5697 295.4601 150.7344
v  -148.5697 301.4601 150.7344
v  -146.5697 301.4601 150.7344
v  151.8904 -0.0000 153.7344
v  151.8904 298.4601 153.7344
v  149.8904 298.4601 153.7344
v  149.8904 -0.0000 153.7344
v  149.8904 298.4601 147.7344
v  149.8904 0.0000 147.7344
v  151.8904 298.4601 147.7344
v  151.8904 0.0000 147.7344
v  151.8904 -0.0000 -144.7257
v  151.8904 298.4601 -144.7257
v  149.8904 298.4601 -144.7257
v  149.8904 -0.0000 -144.7257
v  149.8904 298.4601 -150.7257
v  149.8904 0.0000 -150.7257
v  151.8904 298.4601 -150.7257
v  151.8904 0.0000 -150.7257
v  -146.5697 -0.0000 -144.7257
v  -146.5697 298.4601 -144.7257
v  -148.5697 298.4601 -144.7257
v  -148.5697 -0.0000 -144.7257
v  -148.5697 298.4601 -150.7257
v  -148.5697 0.0000 -150.7257
v  -146.5697 298.4601 -150.7257
v  -146.5697 0.0000 -150.7257
# 64 vertices

vn 0.5774 0.5774 0.5774
vn 0.3015 0.9045 0.3015
vn -0.5774 0.5774 -0.5774
vn -0.5774 0.5774 0.5774
vn -0.5774 -0.5774 -0.5774
vn -0.5774 -0.5774 0.5774
vn 0.3015 -0.9045 0.3015
vn 0.5774 -0.5774 0.5774
vn -0.3015 0.9045 0.3015
vn 0.5774 0.5774 -0.5774
vn 0.5774 -0.5774 -0.5774
vn -0.3015 -0.9045 0.3015
vn -0.3013 0.9050 -0.3004
vn 0.5765 0.5771 0.5784
vn 0.5779 -0.5777 0.5764
vn -0.3024 -0.9041 -0.3019
vn 0.0781 0.0745 -0.9942
vn 0.5345 0.5372 0.6525
vn -0.4290 -0.4293 0.7948
vn -0.6689 -0.6689 -0.3242
vn 0.0781 -0.0745 -0.9942
vn 0.5345 -0.5372 0.6525
vn -0.4290 0.4293 0.7948
vn -0.6689 0.6689 -0.3242
vn -0.3013 -0.9050 -0.3004
vn 0.5765 -0.5771 0.5784
vn 0.5779 0.5777 0.5764
vn -0.3024 0.9041 -0.3019
# 28 vertex normals

o 图形001
g 图形001
f 1//1 2//2 3//3 4//4 
f 4//4 3//3 5//5 6//6 
f 6//6 5//5 7//7 8//8 
f 8//8 7//7 2//2 1//1 
f 2//2 9//9 10//10 3//3 
f 3//3 10//10 11//11 5//5 
f 5//5 11//11 12//12 7//7 
f 7//7 12//12 9//9 2//2 
f 9//9 13//13 14//14 10//10 
f 10//10 14//14 15//15 11//11 
f 11//11 15//15 16//16 12//12 
f 12//12 16//16 13//13 9//9 
f 13//13 17//17 18//18 14//14 
f 14//14 18//18 19//19 15//15 
f 15//15 19//19 20//20 16//16 
f 16//16 20//20 17//17 13//13 
f 17//17 21//21 22//22 18//18 
f 18//18 22//22 23//23 19//19 
f 19//19 23//23 24//24 20//20 
f 20//20 24//24 21//21 17//17 
f 21//21 25//25 26//26 22//22 
f 22//22 26//26 27//27 23//23 
f 23//23 27//27 28//28 24//24 
f 24//24 28//28 25//25 21//21 
f 25//25 29//12 30//11 26//26 
f 26//26 30//11 31//10 27//27 
f 27//27 31//10 32//9 28//28 
f 28//28 32//9 29//12 25//25 
f 29//12 33//7 34//5 30//11 
f 30//11 34//5 35//3 31//10 
f 31//10 35//3 36//2 32//9 
f 32//9 36//2 33//7 29//12 
f 33//7 37//8 38//6 34//5 
f 34//5 38//6 39//4 35//3 
f 35//3 39//4 40//1 36//2 
f 36//2 40//1 37//8 33//7 
f 4//4 6//6 8//8 1//1 
f 39//4 38//6 37//8 40//1 
f 41//8 42//1 43//4 44//6 
f 44//6 43//4 45//3 46//5 
f 46//5 45//3 47//10 48//11 
f 48//11 47//10 42//1 41//8 
f 44//6 46//5 48//11 41//8 
f 45//3 43//4 42//1 47//10 
f 49//8 50//1 51//4 52//6 
f 52//6 51//4 53//3 54//5 
f 54//5 53//3 55//10 56//11 
f 56//11 55//10 50//1 49//8 
f 52//6 54//5 56//11 49//8 
f 53//3 51//4 50//1 55//10 
f 57//8 58//1 59//4 60//6 
f 60//6 59//4 61//3 62//5 
f 62//5 61//3 63//10 64//11 
f 64//11 63//10 58//1 57//8 
f 60//6 62//5 64//11 57//8 
f 61//3 59//4 58//1 63//10 
# 56 polygons

